PathFileType  4	(X/Y/Z) C:\Users\antoi\Documents\MyRepositories\mobilecap\ResultsAnalysis
DataRate	CameraRate	NumFrames	NumMarkers	Units	OrigDataRate	OrigDataStartFrame	OrigNumFrames
100.0	100.0	5	51	mm	100.0	93	184
Frame#	Time	r_knee			r_shank_antsup			r_ankle			r_calc			r_5meta			r_toe			L_knee			L_shank_antsup			L_ankle			L_calc			L_5meta			L_toe			r_sh2			r_sh3			r_sh4			L_sh2			L_sh3			r_thigh1			r_thigh2			r_thigh3			r_thigh4			r_thigh5			L_thigh1			L_thigh2			L_thigh3			L_thigh4			r.ASIS			r.PSIS			L.ASIS			L.PSIS			C7			R_Shoulder			L_Shoulder			R_Sternum			L_Sternum			R_humerus			R_elbow_med			R_elbow_lat			R_forearm			R_wrist_radius			R_wrist_ulna			L_humerus			L_elbow_med			L_elbow_lat			L_forearm			L_wrist_radius			L_wrist_ulna			R_HJC			L_HJC			R_HJC_reg			L_HJC_reg			
		X1	Y1	Z1	X2	Y2	Z2	X3	Y3	Z3	X4	Y4	Z4	X5	Y5	Z5	X6	Y6	Z6	X7	Y7	Z7	X8	Y8	Z8	X9	Y9	Z9	X10	Y10	Z10	X11	Y11	Z11	X12	Y12	Z12	X13	Y13	Z13	X14	Y14	Z14	X15	Y15	Z15	X16	Y16	Z16	X17	Y17	Z17	X18	Y18	Z18	X19	Y19	Z19	X20	Y20	Z20	X21	Y21	Z21	X22	Y22	Z22	X23	Y23	Z23	X24	Y24	Z24	X25	Y25	Z25	X26	Y26	Z26	X27	Y27	Z27	X28	Y28	Z28	X29	Y29	Z29	X30	Y30	Z30	X31	Y31	Z31	X32	Y32	Z32	X33	Y33	Z33	X34	Y34	Z34	X35	Y35	Z35	X36	Y36	Z36	X37	Y37	Z37	X38	Y38	Z38	X39	Y39	Z39	X40	Y40	Z40	X41	Y41	Z41	X42	Y42	Z42	X43	Y43	Z43	X44	Y44	Z44	X45	Y45	Z45	X46	Y46	Z46	X47	Y47	Z47	X48	Y48	Z48	X49	Y49	Z49	X50	Y50	Z50	X51	Y51	Z51	

93	0.92000000	579.90907	590.13881	-61.92840	518.31676	447.50412	-77.71473	245.31593	199.70866	-116.65643	191.83390	230.11099	-180.18491	302.35037	59.86165	-105.50990	350.26632	63.71523	-155.94270	770.03407	594.07430	-374.15307	854.35771	413.00963	-353.01984	840.80384	98.35624	-341.34829	791.96753	69.77845	-272.03401	994.94185	34.25453	-362.49547	1029.89551	80.73704	-310.51694	447.06159	360.76302	-94.02986	461.99005	484.37672	-39.57022	388.74362	399.28906	-47.88503	782.59477	404.87363	-403.36119	797.17632	289.46510	-383.11609	662.81332	871.91090	-22.67365	658.92954	760.70947	-21.37506	594.12515	741.32604	-27.39505	555.64718	876.76024	-66.52013	550.34572	759.02339	-60.72623	785.57564	894.56173	-385.81716	802.33138	760.64957	-383.95991	676.40353	885.64042	-389.72977	697.26104	748.41601	-396.91786	758.30415	1166.17555	-73.10333	574.41524	1193.81846	-164.08842	760.23076	1141.96546	-351.85097	573.58061	1191.92158	-256.27150	670.06392	1658.26014	-344.27610	714.95165	1655.58527	-154.89729	743.27549	1572.60177	-493.83873	793.84143	1568.40080	-276.46853	801.05363	1555.27880	-332.59142	600.96446	1436.51372	-29.25690	474.11591	1359.92581	-53.55550	492.28656	1392.02115	13.41944	524.28932	1187.31128	81.69533	530.78370	1092.67844	100.79644	501.24804	1103.97004	123.41961	732.48000	1271.74103	-503.13993	635.66523	1208.29405	-454.09616	661.54224	1192.63653	-524.27960	736.97324	1000.29563	-518.37224	763.70216	926.06702	-498.88603	738.55897	924.57858	-523.40594	679.46465	1069.72035	-105.26690	672.67258	1058.33263	-302.29549	690.45498	1071.32262	-110.50315	688.78579	1067.52358	-295.10908	
94	0.93000000	599.29342	589.98143	-59.76421	534.94842	448.03649	-76.01685	256.38677	207.97360	-113.96141	204.34806	241.56477	-177.15022	306.75192	65.42711	-104.71189	355.25094	67.19468	-154.54793	776.62901	595.36124	-373.93766	858.47222	413.01321	-352.82651	841.23517	98.70224	-341.12080	792.08579	70.28091	-272.21090	995.24532	33.82322	-362.37862	1030.39980	79.75768	-310.08388	461.79042	363.10589	-92.29579	480.48713	486.05084	-36.65614	405.42783	402.66835	-44.99075	786.92258	405.91627	-403.23520	800.17338	290.33879	-383.01821	676.50855	873.08614	-21.89111	674.22515	761.87556	-19.58604	610.25665	741.30619	-25.66666	569.31956	875.79236	-65.40451	565.86573	758.17152	-58.66959	795.00827	895.75157	-386.21486	810.46198	761.66987	-384.29758	685.75407	887.73667	-389.52362	705.20759	750.36340	-396.92283	767.20252	1168.72211	-72.55704	583.89055	1196.09640	-164.56690	771.00712	1143.75537	-351.07877	583.93775	1194.12238	-256.64880	681.82594	1658.79068	-348.79248	726.61377	1658.52859	-159.27395	754.87959	1571.24184	-497.02653	805.24836	1569.50561	-279.79486	812.41158	1555.74195	-335.76065	610.39932	1441.44444	-32.35315	483.09416	1365.77400	-57.09414	501.01601	1398.10074	9.89033	530.64878	1193.60964	79.86294	536.19395	1099.09687	99.85218	506.43222	1110.78378	122.03180	745.14812	1270.34433	-504.79252	648.36437	1206.75070	-455.75394	674.61477	1190.86120	-525.74416	750.34638	998.75215	-518.85219	777.34669	924.62684	-498.94167	752.24406	922.94650	-523.56192	688.62849	1072.17635	-104.82463	683.07456	1060.31544	-301.85859	699.45426	1073.52089	-110.48140	699.55673	1069.56430	-294.99450	
95	0.94000000	618.93185	590.10402	-57.85536	551.95442	448.90513	-74.53921	268.08262	216.49545	-111.39870	217.64616	253.02476	-174.32817	311.97490	71.65412	-103.83316	361.11107	71.35391	-152.93932	782.70187	596.49368	-373.52640	862.31026	413.04418	-352.56473	841.63575	99.08942	-340.78646	792.18498	70.80395	-272.30980	995.47630	33.47275	-362.26752	1030.87930	78.81382	-309.64914	477.01254	365.73507	-90.75851	499.32409	487.91710	-33.97386	422.48793	406.24950	-42.27334	790.75184	406.87623	-402.80581	802.77466	291.12697	-382.65647	690.71249	874.43017	-21.38505	690.32238	763.15356	-18.33956	627.04559	741.35514	-24.07879	583.25616	874.91113	-63.79522	581.67949	757.62201	-56.28702	803.99442	896.69956	-386.46182	818.05927	762.46337	-384.33013	694.68622	889.65121	-389.18596	712.63395	752.15525	-396.67318	775.80581	1171.44661	-71.93050	593.15208	1198.35458	-165.23930	781.61890	1145.45778	-350.20399	594.11127	1196.26439	-257.17967	693.39905	1659.37725	-353.11311	738.09882	1661.44199	-163.48606	766.36432	1569.98651	-500.02630	816.44789	1570.62646	-282.92116	823.58447	1556.23087	-338.72274	619.79334	1446.30026	-35.26240	491.92404	1371.58296	-60.40258	509.71056	1404.12438	6.59605	537.13783	1199.85796	78.06241	541.70524	1105.43860	98.85078	511.83233	1117.52552	120.65316	757.64592	1269.09449	-506.35752	660.86515	1205.32168	-457.40681	687.53414	1189.23155	-527.18409	763.72347	997.42590	-519.32482	791.10103	923.40868	-498.99729	766.02254	921.50375	-523.72775	697.52889	1074.74527	-104.31736	693.37321	1062.21648	-301.34024	708.26890	1075.74814	-110.35072	710.20399	1071.55364	-294.77131	
96	0.95000000	638.65530	590.55234	-56.17577	569.27527	450.18050	-73.19325	280.37653	225.08936	-109.01320	231.59698	264.22543	-171.75727	318.21011	78.37240	-102.82846	367.97601	76.12768	-151.14139	788.32212	597.49550	-372.95006	865.94902	413.11735	-352.20602	842.05199	99.51407	-340.35631	792.31183	71.31195	-272.31209	995.69063	33.17147	-362.15320	1031.33891	77.85869	-309.18836	492.66549	368.70167	-89.33503	518.29369	490.05203	-31.55965	439.73161	410.04976	-39.76865	794.22343	407.77651	-402.15330	805.09521	291.85412	-382.09562	705.34935	875.97363	-21.17375	707.11195	764.60398	-17.65150	644.34828	741.54232	-22.67119	597.41727	874.15941	-61.82695	597.77626	757.39008	-53.75466	812.53837	897.43710	-386.49346	825.17122	763.06515	-384.05290	703.19858	891.38423	-388.72774	719.58853	753.79035	-396.17494	784.22148	1174.32107	-71.27113	602.32154	1200.55241	-166.02713	792.07365	1147.06408	-349.26551	604.11519	1198.32966	-257.81917	704.78079	1659.99446	-357.24541	749.36365	1664.29196	-167.52992	777.74742	1568.83704	-502.84605	827.42690	1571.75028	-285.84677	834.56316	1556.73261	-341.47216	629.10298	1451.06156	-37.95229	500.57783	1377.31442	-63.46734	518.32522	1410.07515	3.55145	543.74260	1206.01583	76.31891	547.37004	1111.68494	97.82031	517.45705	1124.15426	119.31463	769.95836	1267.98399	-507.82467	673.15988	1204.01505	-459.05198	700.26992	1187.75736	-528.61044	777.09497	996.31991	-519.77904	804.91761	922.42927	-499.04561	779.85212	920.26982	-523.89373	706.28459	1077.39480	-103.75236	703.59218	1064.02144	-300.74365	717.08519	1077.95646	-110.09483	720.69749	1073.49070	-294.42125	
97	0.96000000	658.32019	591.34245	-54.69187	586.81982	451.87631	-71.90810	293.23535	233.57762	-106.83054	246.02866	274.89849	-169.45304	325.68194	85.40572	-101.64378	376.00991	81.43499	-149.18406	793.57267	598.39809	-372.25025	869.42907	413.23349	-351.73145	842.50404	99.96975	-339.85016	792.48805	71.77964	-272.21554	995.93046	32.90535	-362.03276	1031.76930	76.87409	-308.68862	508.66919	372.00870	-87.95813	537.21562	492.50355	-29.43395	457.01609	414.07570	-37.50477	797.46874	408.64101	-401.37056	807.24588	292.55699	-381.41061	720.27873	877.72414	-21.23793	724.37229	766.28692	-17.46421	661.96855	741.92644	-21.46647	611.72784	873.57884	-59.66560	614.16403	757.41630	-51.28442	820.68394	898.01383	-386.25648	831.89195	763.52748	-383.48638	711.33103	892.95997	-388.17547	726.17163	755.28808	-395.46404	792.53768	1177.29082	-70.62877	611.51055	1202.66020	-166.84069	802.38071	1148.57178	-348.31224	613.96627	1200.31055	-258.51845	715.97217	1660.61701	-361.19771	760.36651	1667.04298	-171.40750	789.03681	1567.79056	-505.49770	838.18066	1572.86782	-288.58115	845.34684	1557.23991	-344.01375	638.26609	1455.72072	-40.41683	509.03145	1382.92933	-66.28922	526.81580	1415.92878	0.75192	550.44369	1212.04737	74.65980	553.21761	1117.81293	96.79416	523.30389	1130.63128	118.04787	782.07427	1266.99822	-509.19171	685.24625	1202.82847	-460.68955	712.79582	1186.43667	-530.03644	790.44841	995.42445	-520.20537	818.74710	921.69623	-499.07791	793.69289	919.26086	-524.04709	714.99442	1080.07852	-103.14760	713.73951	1065.72639	-300.08595	726.05010	1080.10059	-109.71073	730.99260	1075.37657	-293.94436	
